<svg width="32" height="32" viewBox="0 0 32 32" fill="none" xmlns="http://www.w3.org/2000/svg">
<path d="M9.33333 26.3333H22.6667M12 21V26.3333M20 21V26.3333M4 6.33333C4 5.97971 4.14048 5.64057 4.39052 5.39052C4.64057 5.14048 4.97971 5 5.33333 5H26.6667C27.0203 5 27.3594 5.14048 27.6095 5.39052C27.8595 5.64057 28 5.97971 28 6.33333V19.6667C28 20.0203 27.8595 20.3594 27.6095 20.6095C27.3594 20.8595 27.0203 21 26.6667 21H5.33333C4.97971 21 4.64057 20.8595 4.39052 20.6095C4.14048 20.3594 4 20.0203 4 19.6667V6.33333Z" stroke="white" stroke-width="2" stroke-linecap="round" stroke-linejoin="round"/>
</svg>
