<svg width="32" height="32" viewBox="0 0 32 32" fill="none" xmlns="http://www.w3.org/2000/svg">
<path d="M9 13V18.3333M13 13V18.3333M17 13V18.3333M7.66667 9H22.3333C23.0406 9 23.7189 9.28095 24.219 9.78105C24.719 10.2811 25 10.9594 25 11.6667V12.3333C25 12.5101 25.0702 12.6797 25.1953 12.8047C25.3203 12.9298 25.4899 13 25.6667 13C25.8435 13 26.013 13.0702 26.1381 13.1953C26.2631 13.3203 26.3333 13.4899 26.3333 13.6667V17.6667C26.3333 17.8435 26.2631 18.013 26.1381 18.1381C26.013 18.2631 25.8435 18.3333 25.6667 18.3333C25.4899 18.3333 25.3203 18.4036 25.1953 18.5286C25.0702 18.6536 25 18.8232 25 19V19.6667C25 20.3739 24.719 21.0522 24.219 21.5523C23.7189 22.0524 23.0406 22.3333 22.3333 22.3333H7.66667C6.95942 22.3333 6.28115 22.0524 5.78105 21.5523C5.28095 21.0522 5 20.3739 5 19.6667V11.6667C5 10.9594 5.28095 10.2811 5.78105 9.78105C6.28115 9.28095 6.95942 9 7.66667 9Z" stroke="white" stroke-width="2" stroke-linecap="round" stroke-linejoin="round"/>
</svg>
