<svg width="40" height="40" viewBox="0 0 40 40" fill="none" xmlns="http://www.w3.org/2000/svg">
<g clip-path="url(#clip0_18_2)">
<path fill-rule="evenodd" clip-rule="evenodd" d="M0 0H40V40H0V0Z" fill="#F16718"/>
<path d="M10.342 17C10.524 17 10.63 16.89 10.63 16.701V8.671C10.63 8.593 10.676 8.546 10.752 8.546H13.195C13.377 8.546 13.483 8.436 13.483 8.247V6.3C13.483 6.111 13.377 6.001 13.195 6.001H5.288C5.106 6 5 6.11 5 6.299V8.247C5 8.436 5.106 8.546 5.288 8.546H7.656C7.732 8.546 7.777 8.593 7.777 8.671V16.701C7.777 16.89 7.883 17 8.065 17H10.342ZM16.912 17C17.095 17 17.202 16.89 17.202 16.701V11.154C17.202 11.029 17.292 11.013 17.353 11.107L18.293 12.726C18.3252 12.7904 18.3754 12.8439 18.4376 12.8802C18.4998 12.9164 18.5711 12.9337 18.643 12.93H19.705C19.7769 12.9337 19.8482 12.9164 19.9104 12.8802C19.9726 12.8439 20.0228 12.7904 20.055 12.726L20.995 11.107C21.055 11.013 21.147 11.029 21.147 11.154V16.701C21.147 16.89 21.253 17 21.435 17H23.712C23.894 17 24 16.89 24 16.701V6.3C24 6.11 23.894 6 23.712 6H21.45C21.3783 5.99649 21.3071 6.01391 21.2452 6.05013C21.1832 6.08635 21.1331 6.13981 21.101 6.204L19.265 9.3C19.22 9.394 19.129 9.394 19.083 9.3L17.247 6.204C17.2148 6.13965 17.1646 6.08608 17.1024 6.04985C17.0402 6.01361 16.9689 5.99629 16.897 6H14.637C14.454 6 14.348 6.11 14.348 6.299V16.7C14.348 16.889 14.454 16.999 14.637 16.999H16.913L16.912 17Z" fill="#162441"/>
</g>
<defs>
<clipPath id="clip0_18_2">
<rect width="40" height="40" fill="white"/>
</clipPath>
</defs>
</svg>
